<svg xmlns="http://www.w3.org/2000/svg" viewBox="0 0 48 48"><title>ico_u</title><path d="M36.35,37.67H29s-0.85-.56-0.85-0.59a19.9,19.9,0,0,1-7.27.92C18,37.85,15,37.15,13.44,35.47S11,31.41,11,28.34V11.15h9.12v14.4a8.27,8.27,0,0,0,.73,3.91,2.54,2.54,0,0,0,2.42,1.33,3.5,3.5,0,0,0,3.35-1.85c0.67-1.23.74-3.06,0.74-6V11.14h9V21.26l7.85,0c-0.42-5.65-2-10.18-4.92-13.3Q34.16,2.47,24.18,2.47T9,8Q3.76,13.49,3.76,23.93T9,40q5.25,5.52,15.09,5.52T39.26,40c2.7-2.86,4.36-7,5-11.94H36.37v9.57h0Z" fill="#e3f1f9"/></svg>
