<svg xmlns="http://www.w3.org/2000/svg" width="48" height="48" viewBox="0 0 48 48"><title>ico_manager</title><rect width="48" height="48" fill="none"/><path d="M24,2A22,22,0,1,0,46,24h0A22,22,0,0,0,24,2ZM37.33,34.68a1.89,1.89,0,0,1-.37.79,2.23,2.23,0,0,1-.79.62,3,3,0,0,1-1.35.25H13.17a3,3,0,0,1-1.35-.25A2.23,2.23,0,0,1,11,35.46a1.89,1.89,0,0,1-.37-0.79c-0.06-.26-0.34-5.58-0.34-5.58H22.81V32h2.42v-2.9h12.5S37.39,34.42,37.33,34.68ZM25.25,27v-2.8H22.81V27H9.57V26c0-.7.35-7.66,0.45-8.09a2.55,2.55,0,0,1,.48-1,2,2,0,0,1,.87-0.62,3.86,3.86,0,0,1,1.33-.2h4.63s0.92-1.67,1.08-2c0,0,.89-1.71,1-1.86a1.09,1.09,0,0,1,.31-0.34,0.94,0.94,0,0,1,.42-0.14c0.22,0,7.51,0,7.73,0a0.94,0.94,0,0,1,.42.14,1.09,1.09,0,0,1,.31.34c0.09,0.15,2.06,3.83,2.06,3.83h4.62a3.86,3.86,0,0,1,1.33.2,2,2,0,0,1,.87.62,2.55,2.55,0,0,1,.48,1c0.1,0.43.43,7.44,0.45,8.12v1H25.25Z" fill="#e3f1f9"/><path d="M27.18,14.12A0.64,0.64,0,0,0,27,13.9a0.88,0.88,0,0,0-.31-0.11c-0.15,0-5.15,0-5.3,0a0.88,0.88,0,0,0-.31.11,0.64,0.64,0,0,0-.23.23c-0.06.09-1,1.95-1,1.95h8.45S27.24,14.22,27.18,14.12Z" fill="#e3f1f9"/></svg>