<svg xmlns="http://www.w3.org/2000/svg" viewBox="0 0 48 48"><title>ico_mail</title><path d="M47.15,15.86c-0.33.15-16.88,8-21.72,10.35a3.22,3.22,0,0,1-2.83,0C17.68,23.76,1.18,16,.85,15.86a0.54,0.54,0,0,0-.84.53V35.51c0,1.3.41,2.41,2.52,2.41H45.47c2.11,0,2.52-1.11,2.52-2.41V16.39A0.54,0.54,0,0,0,47.15,15.86Zm-0.32-7H1.19C0.45,8.82,0,8.82,0,9.6A1.91,1.91,0,0,0,1.13,11c0.81,0.48,16.56,8,21.47,10.4a3.84,3.84,0,0,0,1.54.35,3.79,3.79,0,0,0,1.53-.35C30.56,19,46.16,11.42,46.9,11A2,2,0,0,0,48,9.6c0-.78-0.44-0.78-1.17-0.78h0Z" fill="#0C5583"/></svg>
