<svg xmlns="http://www.w3.org/2000/svg" viewBox="0 0 48 48"><title>ico_directory</title><path  d="M45.42,8.92H2.65c-2.16,0-2.58,1.14-2.58,2.47V36.61c0,1.33.42,2.47,2.58,2.47H7.82V38a3.24,3.24,0,0,1,6.47,0v1.11H33.56V38A3.24,3.24,0,0,1,40,38v1.11h5.39c2.16,0,2.58-1.14,2.58-2.47V11.39C48,10.06,47.58,8.92,45.42,8.92ZM12.51,14c2.05,0,3.72,2.2,3.72,4.91s-1.66,4.91-3.72,4.91S8.8,21.67,8.8,19,10.47,14,12.52,14h0ZM5.23,29.64a14.43,14.43,0,0,1,.51-2.69,2.33,2.33,0,0,1,1.46-1.49c0.88-.31,2.94-0.77,2.94-0.77s1.89,1.94,2.4,1.94,2.4-1.94,2.4-1.94,2.06,0.45,3,.77a2.33,2.33,0,0,1,1.46,1.49,14.39,14.39,0,0,1,.51,2.69H5.23Zm37.42,0H24.9V25.45H42.65v4.16Zm0-5.72H24.9V19.74H42.65V23.9Zm0-5.72H24.9V14H42.65v4.16Z" fill="#0C5583"/></svg>
