<svg xmlns="http://www.w3.org/2000/svg" width="48" height="48" viewBox="0 0 48 48"><title>ico_doctor</title><rect width="48" height="48" fill="none"/><path d="M33.34,19.29a1,1,0,0,0-.79.39,1,1,0,0,0-.39.83,1.16,1.16,0,0,0,.39.83,1,1,0,0,0,.79.32,1.13,1.13,0,0,0,.83-0.32,1.16,1.16,0,0,0,.39-0.83A1.32,1.32,0,0,0,33.34,19.29Z" fill="#e3f1f9"/><path d="M24,2A22,22,0,1,0,46,24,22,22,0,0,0,24,2ZM36.22,22.5a3.53,3.53,0,0,1-1.66,1.28V31a6.29,6.29,0,0,1-2.43,5,8.51,8.51,0,0,1-5.76,2,8.75,8.75,0,0,1-5.82-2,6.36,6.36,0,0,1-2.36-5V28.65a8.66,8.66,0,0,1-5.06-2.36,6.29,6.29,0,0,1-2-4.61V12.32a1.13,1.13,0,0,1,.32-0.83,1.16,1.16,0,0,1,.83-0.39,1.05,1.05,0,0,1,.32.06,2.41,2.41,0,0,1,.83-0.9,2.47,2.47,0,0,1,1.22-.32,2.27,2.27,0,0,1,1.66.7,2.31,2.31,0,0,1-1.66,3.93,2.13,2.13,0,0,1-1.15-.32v7.36a4.24,4.24,0,0,0,1.66,3.33,7.08,7.08,0,0,0,8.32,0,4.24,4.24,0,0,0,1.66-3.33V14.26a2.12,2.12,0,0,1-1.15.32,2.36,2.36,0,0,1-1.66-3.93A2.27,2.27,0,0,1,24,9.95a2.47,2.47,0,0,1,1.22.32,2.42,2.42,0,0,1,.83.9,1.05,1.05,0,0,1,.32-0.06,1.16,1.16,0,0,1,.83.39,1.13,1.13,0,0,1,.32.83v9.34a6.29,6.29,0,0,1-2,4.61,8.66,8.66,0,0,1-5.06,2.36V31a4.07,4.07,0,0,0,1.73,3.33,6.57,6.57,0,0,0,4.16,1.35,6.48,6.48,0,0,0,4.1-1.35A4.07,4.07,0,0,0,32.23,31V23.76a3.53,3.53,0,0,1-1.66-1.28,3.34,3.34,0,0,1-.64-2A3.4,3.4,0,0,1,31,18a3.32,3.32,0,0,1,2.43-1,3.49,3.49,0,0,1,3.52,3.47s0,0,0,0a3.34,3.34,0,0,1-.68,2h0Z" fill="#e3f1f9"/></svg>