<svg id="Portal_Page" data-name="Portal Page" xmlns="http://www.w3.org/2000/svg" viewBox="0 0 56 56"><title>icon-nurse</title><g id="V2"><polygon points="29.79 24.01 26.13 24.01 26.13 27.45 22.69 27.45 22.69 31.11 26.13 31.11 26.13 34.55 29.79 34.55 29.79 31.11 33.24 31.11 33.24 27.45 29.79 27.45 29.79 24.01" fill="#e3f1f9"/><path d="M3692.43,995.24a28,28,0,1,0,28,28A28,28,0,0,0,3692.43,995.24Zm15.33,21.31c-11.63-5.83-20.8-5-30.73.12C3686.22,1005.1,3698.83,1005.46,3707.76,1016.55Zm-0.73,18.26c-11.63-5.83-21.75,3.91-30-.15l-5.58-13c10-9,31.16-9.64,41.51,0Z" transform="translate(-3664.43 -995.24)" fill="#e3f1f9"/></g></svg>