<svg id="Portal_Page" data-name="Portal Page" xmlns="http://www.w3.org/2000/svg" viewBox="0 0 56 56"><title>icon-managers</title><g id="V2"><path d="M3692.5,887.54a28,28,0,1,0,28,28A28,28,0,0,0,3692.5,887.54Zm17.4,35q0,0.54-.07,1.44t-0.11,2l-0.14,2.15a5,5,0,0,1-.11,1,2.41,2.41,0,0,1-.47,1,2.84,2.84,0,0,1-1,.79,3.88,3.88,0,0,1-1.72.32h-27.56a3.88,3.88,0,0,1-1.72-.32,2.84,2.84,0,0,1-1-.79,2.41,2.41,0,0,1-.47-1,5,5,0,0,1-.11-1l-0.14-2.15q-0.07-1.08-.11-1.94t-0.07-1.44l0-.57h15.79v3.66h3.3V922h15.79Zm-15.75-2.4v-3.66h-3.3v3.66h-16.72l0-1.33q0-1.33.11-3.12l0.14-3.59q0.07-1.79.07-2.66a10,10,0,0,1,.25-1.65,3.24,3.24,0,0,1,.61-1.26,2.5,2.5,0,0,1,1.11-.79,4.91,4.91,0,0,1,1.69-.25H3684l0.72-1.29q0.36-.65.65-1.22l0.5-1a6.39,6.39,0,0,1,.36-0.65q0.22-.43.39-0.72a1.39,1.39,0,0,1,.39-0.43,1.2,1.2,0,0,1,.54-0.18,7.73,7.73,0,0,1,.83,0h8.18a7.73,7.73,0,0,1,.83,0,1.2,1.2,0,0,1,.54.18,1.39,1.39,0,0,1,.39.43q0.18,0.29.39,0.72a6.44,6.44,0,0,1,.36.65l0.5,1q0.29,0.57.65,1.22l0.72,1.29h5.88a4.91,4.91,0,0,1,1.69.25,2.5,2.5,0,0,1,1.11.79,3.24,3.24,0,0,1,.61,1.26,10,10,0,0,1,.25,1.65q0,0.93.07,2.73l0.14,3.59q0.07,1.79.11,3.09l0,1.29h-16.72Z" transform="translate(-3664.5 -887.54)" fill="#e3f1f9"/><path d="M3697.23,904.2q-0.14-.25-0.25-0.47a1.21,1.21,0,0,0-.18-0.29q-0.14-.29-0.25-0.47a0.82,0.82,0,0,0-.29-0.29,1.12,1.12,0,0,0-.39-0.14,3.65,3.65,0,0,0-.57,0h-5.6a3.64,3.64,0,0,0-.57,0,1.12,1.12,0,0,0-.39.14,0.82,0.82,0,0,0-.29.29q-0.11.18-.25,0.47a1.21,1.21,0,0,0-.18.29q-0.11.22-.25,0.47t-0.29.57a6.34,6.34,0,0,1-.36.68h10.76a6.34,6.34,0,0,1-.36-0.68Q3697.38,904.45,3697.23,904.2Z" transform="translate(-3664.5 -887.54)" fill="#e3f1f9"/></g></svg>