<svg id="Portal_Page" data-name="Portal Page" xmlns="http://www.w3.org/2000/svg" viewBox="0 0 94.09 59.48"><title>icon-directory</title><g id="V2"><path d="M4095.57,502.4h-83.92c-4.26,0-5.09,2.25-5.09,4.87V557c0,2.62.83,4.87,5.09,4.87h10.21v-2.19a6.38,6.38,0,0,1,12.75,0v2.19h38v-2.19a6.38,6.38,0,0,1,12.75,0v2.19h10.21c4.26,0,5.09-2.25,5.09-4.87V507.27C4100.66,504.65,4099.83,502.4,4095.57,502.4Zm-64.46,10.11c4.05,0,7.33,4.34,7.33,9.69s-3.28,9.69-7.33,9.69-7.33-4.34-7.33-9.69S4027.07,512.51,4031.12,512.51Zm-14.37,30.75a28.45,28.45,0,0,1,1-5.31,4.6,4.6,0,0,1,2.87-2.94c1.74-.62,5.8-1.51,5.8-1.51s3.73,3.82,4.73,3.82,4.74-3.82,4.74-3.82,4.07,0.89,5.82,1.51a4.6,4.6,0,0,1,2.88,2.94,28.36,28.36,0,0,1,1,5.31h-28.75Zm73.79-.06h-35V535h35v8.2Zm0-11.27h-35v-8.2h35v8.2Zm0-11.28h-35v-8.2h35v8.2Z" transform="translate(-4006.56 -502.4)" fill="#0c6299"/></g></svg>