<svg id="Portal_Page" data-name="Portal Page" xmlns="http://www.w3.org/2000/svg" viewBox="0 0 83.47 88.78"><title>icon-u</title><g id="V2"><path d="M3799.44,559h-15.08s-1.75-1.16-1.75-1.22c-4.16,1.68-10.86,2.1-15,1.89-6-.3-12.1-1.74-15.42-5.21s-5-8.38-5-14.71V504.31H3766V534q0,5.33,1.51,8.06a5.24,5.24,0,0,0,5,2.74q4.85,0,6.91-3.82c1.38-2.54,1.53-6.31,1.53-12.36V504.29l18.56,0v20.86l16.18-.06c-0.86-11.65-4.06-21-10.14-27.42q-10.62-11.27-31.21-11.27T3743,497.78q-10.77,11.36-10.77,32.89,0,21.77,10.83,33.15t31.12,11.39q20.59,0,31.27-11.33c5.56-5.89,9-14.49,10.26-24.62h-16.24V559Z" transform="translate(-3732.21 -486.43)" fill="#0c6299"/></g></svg>