<svg id="Portal_Page" data-name="Portal Page" xmlns="http://www.w3.org/2000/svg" viewBox="0 0 56 56"><title>icon-doctor</title><g id="V2"><path d="M3704.8,802.47a1.23,1.23,0,0,0-1,.49,1.31,1.31,0,0,0-.49,1.06,1.48,1.48,0,0,0,.49,1.06,1.33,1.33,0,0,0,1,.41,1.43,1.43,0,0,0,1.06-.41,1.48,1.48,0,0,0,.49-1.06A1.68,1.68,0,0,0,3704.8,802.47Z" transform="translate(-3664.93 -780.45)" fill="#e3f1f9"/><path d="M3692.93,780.45a28,28,0,1,0,28,28A28,28,0,0,0,3692.93,780.45Zm15.53,26.09a4.48,4.48,0,0,1-2.11,1.63v9.19a8,8,0,0,1-3.09,6.34,10.81,10.81,0,0,1-7.32,2.6,11.12,11.12,0,0,1-7.4-2.6,8.09,8.09,0,0,1-3-6.34v-3a11,11,0,0,1-6.43-3,8,8,0,0,1-2.52-5.86V793.61a1.43,1.43,0,0,1,.41-1.06,1.48,1.48,0,0,1,1.06-.49,1.34,1.34,0,0,1,.41.08,3.06,3.06,0,0,1,1.06-1.14,3.14,3.14,0,0,1,1.55-.41,2.89,2.89,0,0,1,2.11.89,2.93,2.93,0,0,1-2.11,5,2.71,2.71,0,0,1-1.46-.41v9.35a5.39,5.39,0,0,0,2.11,4.23,9,9,0,0,0,10.57,0,5.39,5.39,0,0,0,2.11-4.23v-9.35a2.7,2.7,0,0,1-1.46.41,3,3,0,0,1-2.11-5,2.89,2.89,0,0,1,2.11-.89,3.14,3.14,0,0,1,1.55.41,3.07,3.07,0,0,1,1.06,1.14,1.34,1.34,0,0,1,.41-0.08,1.48,1.48,0,0,1,1.06.49,1.43,1.43,0,0,1,.41,1.06v11.87a8,8,0,0,1-2.52,5.86,11,11,0,0,1-6.43,3v3a5.17,5.17,0,0,0,2.2,4.23,8.35,8.35,0,0,0,5.29,1.71,8.23,8.23,0,0,0,5.21-1.71,5.17,5.17,0,0,0,2.2-4.23v-9.19a4.48,4.48,0,0,1-2.11-1.63,4.24,4.24,0,0,1-.81-2.52,4.32,4.32,0,0,1,1.3-3.17,4.22,4.22,0,0,1,3.09-1.3,4.44,4.44,0,0,1,4.47,4.47A4.24,4.24,0,0,1,3708.46,806.54Z" transform="translate(-3664.93 -780.45)" fill="#e3f1f9"/></g></svg>