<svg id="Portal_Page" data-name="Portal Page" xmlns="http://www.w3.org/2000/svg" viewBox="0 0 94.11 58.73"><title>icon-mail</title><g id="V2"><path d="M4378.8,518.34c-0.67.3-32.81,16.09-42.57,20.89a6.49,6.49,0,0,1-5.71-.07c-9.93-4.88-41.75-20.51-42.42-20.82a1.09,1.09,0,0,0-1.7,1.06V558c0,2.62.83,4.87,5.09,4.87h83.92c4.26,0,5.09-2.25,5.09-4.87V519.4A1.09,1.09,0,0,0,4378.8,518.34Zm-0.64-14.23h-89.37c-1.5,0-2.37,0-2.37,1.58,0,0.73.62,1.87,2.25,2.83s31.94,16.16,41.86,21a7.75,7.75,0,0,0,3.11.7,7.65,7.65,0,0,0,3.09-.7c9.85-4.88,40.08-20.16,41.56-21s2.23-2.1,2.23-2.83C4380.51,504.12,4379.64,504.12,4378.16,504.12Z" transform="translate(-4286.4 -504.12)" fill="#0c6299"/></g></svg>